<svg width="36" height="36" viewBox="0 0 36 36" fill="none" xmlns="http://www.w3.org/2000/svg">
<rect x="0.5" y="0.5" width="35" height="35" rx="17.5" stroke="#C9BFA8"/>
<path d="M18.0002 18.0002C17.0835 18.0002 16.2988 17.6738 15.646 17.021C14.9932 16.3682 14.6668 15.5835 14.6668 14.6668C14.6668 13.7502 14.9932 12.9654 15.646 12.3127C16.2988 11.6599 17.0835 11.3335 18.0002 11.3335C18.9168 11.3335 19.7016 11.6599 20.3543 12.3127C21.0071 12.9654 21.3335 13.7502 21.3335 14.6668C21.3335 15.5835 21.0071 16.3682 20.3543 17.021C19.7016 17.6738 18.9168 18.0002 18.0002 18.0002ZM11.3335 24.6668V22.3335C11.3335 21.8613 11.455 21.4272 11.6981 21.0314C11.9411 20.6356 12.2641 20.3335 12.6668 20.1252C13.5279 19.6946 14.4029 19.3717 15.2918 19.1564C16.1807 18.9411 17.0835 18.8335 18.0002 18.8335C18.9168 18.8335 19.8196 18.9411 20.7085 19.1564C21.5974 19.3717 22.4724 19.6946 23.3335 20.1252C23.7363 20.3335 24.0592 20.6356 24.3022 21.0314C24.5453 21.4272 24.6668 21.8613 24.6668 22.3335V24.6668H11.3335ZM13.0002 23.0002H23.0002V22.3335C23.0002 22.1807 22.962 22.0418 22.8856 21.9168C22.8092 21.7918 22.7085 21.6946 22.5835 21.6252C21.8335 21.2502 21.0766 20.9689 20.3127 20.7814C19.5488 20.5939 18.7779 20.5002 18.0002 20.5002C17.2224 20.5002 16.4516 20.5939 15.6877 20.7814C14.9238 20.9689 14.1668 21.2502 13.4168 21.6252C13.2918 21.6946 13.1911 21.7918 13.1147 21.9168C13.0384 22.0418 13.0002 22.1807 13.0002 22.3335V23.0002ZM18.0002 16.3335C18.4585 16.3335 18.8509 16.1703 19.1772 15.8439C19.5036 15.5175 19.6668 15.1252 19.6668 14.6668C19.6668 14.2085 19.5036 13.8161 19.1772 13.4897C18.8509 13.1634 18.4585 13.0002 18.0002 13.0002C17.5418 13.0002 17.1495 13.1634 16.8231 13.4897C16.4967 13.8161 16.3335 14.2085 16.3335 14.6668C16.3335 15.1252 16.4967 15.5175 16.8231 15.8439C17.1495 16.1703 17.5418 16.3335 18.0002 16.3335Z" fill="#1A1815"/>
</svg>
