<svg width="47" height="90" viewBox="0 0 47 90" fill="none" xmlns="http://www.w3.org/2000/svg">
<path d="M32.6939 0.363692L45.4546 5.26207C45.7257 5.36612 45.8611 5.67021 45.757 5.94127L14.106 88.3951C14.0019 88.6661 13.6978 88.8015 13.4268 88.6974L0.666063 83.7991C0.395004 83.695 0.259615 83.3909 0.363665 83.1199L32.0147 0.666089C32.1187 0.395211 32.423 0.259712 32.6939 0.363692V0.363692Z" fill="#7A2E27"/>
<path d="M32.6939 0.363692L45.4546 5.26207C45.7257 5.36612 45.8611 5.67021 45.757 5.94127L14.106 88.3951C14.0019 88.6661 13.6978 88.8015 13.4268 88.6974L0.666063 83.7991C0.395004 83.695 0.259615 83.3909 0.363665 83.1199L32.0147 0.666089C32.1187 0.395211 32.423 0.259712 32.6939 0.363692V0.363692" stroke="#1A1815" stroke-width="0.657143"/>
</svg>
