<svg width="1046" height="12" viewBox="0 0 1046 12" fill="none" xmlns="http://www.w3.org/2000/svg">
<path d="M3.99583 8.64792L5.83333 7.53958L7.67083 8.6625L7.18958 6.5625L8.80833 5.1625L6.67917 4.97292L5.83333 2.98958L4.9875 4.95833L2.85833 5.14792L4.47708 6.5625L3.99583 8.64792ZM2.23125 11.0833L3.17917 6.98542L0 4.22917L4.2 3.86458L5.83333 0L7.46667 3.86458L11.6667 4.22917L8.4875 6.98542L9.43542 11.0833L5.83333 8.91042L2.23125 11.0833Z" fill="#7A2E27"/>
<path d="M17.6626 8.64792L19.5001 7.53958L21.3376 8.6625L20.8563 6.5625L22.4751 5.1625L20.3459 4.97292L19.5001 2.98958L18.6542 4.95833L16.5251 5.14792L18.1438 6.5625L17.6626 8.64792ZM15.898 11.0833L16.8459 6.98542L13.6667 4.22917L17.8667 3.86458L19.5001 0L21.1334 3.86458L25.3334 4.22917L22.1542 6.98542L23.1022 11.0833L19.5001 8.91042L15.898 11.0833Z" fill="#7A2E27"/>
<path d="M31.3291 8.64792L33.1666 7.53958L35.0041 8.6625L34.5228 6.5625L36.1416 5.1625L34.0124 4.97292L33.1666 2.98958L32.3208 4.95833L30.1916 5.14792L31.8103 6.5625L31.3291 8.64792ZM29.5645 11.0833L30.5124 6.98542L27.3333 4.22917L31.5333 3.86458L33.1666 0L34.7999 3.86458L38.9999 4.22917L35.8208 6.98542L36.7687 11.0833L33.1666 8.91042L29.5645 11.0833Z" fill="#7A2E27"/>
<path d="M44.9958 8.64792L46.8333 7.53958L48.6708 8.6625L48.1896 6.5625L49.8083 5.1625L47.6792 4.97292L46.8333 2.98958L45.9875 4.95833L43.8583 5.14792L45.4771 6.5625L44.9958 8.64792ZM43.2313 11.0833L44.1792 6.98542L41 4.22917L45.2 3.86458L46.8333 0L48.4667 3.86458L52.6667 4.22917L49.4875 6.98542L50.4354 11.0833L46.8333 8.91042L43.2313 11.0833Z" fill="#7A2E27"/>
<path d="M58.6626 8.64792L60.5001 7.53958L62.3376 8.6625L61.8563 6.5625L63.4751 5.1625L61.3459 4.97292L60.5001 2.98958L59.6542 4.95833L57.5251 5.14792L59.1438 6.5625L58.6626 8.64792ZM56.898 11.0833L57.8459 6.98542L54.6667 4.22917L58.8667 3.86458L60.5001 0L62.1334 3.86458L66.3334 4.22917L63.1542 6.98542L64.1022 11.0833L60.5001 8.91042L56.898 11.0833Z" fill="#C9BFA8"/>
</svg>
